<svg version="1.1" id="Layer_1" xmlns="http://www.w3.org/2000/svg" x="0px" y="0px"
		 width="100%" viewBox="0 0 780 799" enable-background="new 0 0 780 799" xml:space="preserve">
<path fill="#091016" opacity="1.000000" stroke="none" 
	d="
M344.000000,800.000000 
	C229.742584,800.000000 115.485184,800.000000 1.000000,800.000000 
	C1.000000,696.644775 1.000000,593.289368 1.275424,489.696350 
	C5.616770,503.515472 12.922319,515.581299 23.917542,525.277527 
	C25.376268,526.563904 27.583851,527.001099 29.728161,527.915771 
	C30.744999,528.637878 31.478317,529.275757 31.939159,530.138062 
	C32.722038,530.780396 33.777393,531.198242 35.149651,531.687805 
	C42.366119,534.681396 49.265690,537.603271 56.172474,540.937317 
	C57.062675,541.896545 57.918789,542.868713 58.832710,542.926453 
	C70.917282,543.690552 83.004730,544.724060 95.102104,544.883667 
	C107.563271,545.047974 120.035210,544.088501 132.503967,544.043274 
	C168.284393,543.913513 204.065643,544.020508 239.846298,543.927002 
	C241.566574,543.922485 243.284164,542.890198 245.227356,542.197571 
	C245.615570,541.994568 245.779449,541.930603 246.177399,542.126587 
	C246.940369,541.131531 247.888397,539.888855 247.925995,538.619263 
	C248.093491,532.963257 248.060349,527.298645 247.973877,521.639038 
	C247.936890,519.217529 248.624557,518.019287 251.335114,517.951172 
	C258.123688,517.780762 264.904999,517.051025 271.689850,517.041931 
	C329.630920,516.964417 387.573059,517.139587 445.511871,516.771545 
	C451.132019,516.735840 457.187469,514.390930 462.257599,511.662384 
	C478.602448,502.866455 480.295868,479.751770 469.651703,467.194733 
	C463.395721,459.814575 455.254822,456.669220 446.315399,455.117279 
	C413.439423,449.409546 380.527283,443.909149 347.610992,438.437775 
	C346.445190,438.243988 345.091583,439.179962 343.500702,439.623444 
	C342.783508,439.481659 342.391113,439.305878 341.926086,438.742310 
	C334.774597,437.083923 327.697449,435.803253 320.607330,434.598602 
	C320.423767,434.567413 320.098999,435.367493 319.469910,435.826447 
	C318.397949,435.658844 317.696198,435.444702 316.930237,434.834839 
	C316.571136,434.056274 316.326569,433.395630 315.973755,433.331573 
	C308.502319,431.975830 301.023163,430.659485 293.525726,429.458740 
	C293.103821,429.391174 292.512207,430.383087 291.716919,430.932861 
	C290.903503,430.804688 290.372681,430.625549 289.854248,430.093201 
	C288.841553,427.458160 287.886688,427.515137 286.715088,429.868652 
	C285.920258,429.695465 285.409821,429.479675 284.898499,428.956482 
	C284.555145,428.240753 284.212677,427.832489 283.870209,427.424194 
	C283.580200,427.905029 283.290161,428.385895 282.714111,428.908997 
	C281.910309,428.745270 281.392548,428.539276 280.881653,428.020569 
	C280.552734,427.283966 280.216888,426.860077 279.881042,426.436188 
	C279.587708,426.924011 279.294342,427.411804 278.713684,427.940338 
	C277.909485,427.764008 277.392609,427.546936 276.870239,426.971924 
	C275.431458,424.992950 274.107483,422.557220 271.626495,425.981995 
	C268.472473,425.078796 265.691864,424.154755 262.922546,422.972046 
	C262.836945,422.405884 262.740051,422.098389 262.643188,421.790924 
	C262.428741,422.182312 262.214264,422.573669 261.660034,422.978027 
	C259.877930,422.403137 258.435547,421.815338 256.946411,420.857971 
	C253.566833,418.340912 250.433334,415.543182 245.590515,417.110229 
	C238.089020,412.894257 230.951736,408.701080 223.841064,404.131104 
	C222.758621,402.420898 221.802353,400.913971 220.516449,399.781342 
	C209.654205,390.214172 200.599319,379.307159 195.736221,365.476227 
	C190.176514,349.664154 188.801300,333.266998 188.904892,316.579376 
	C189.034531,295.700226 192.852127,275.806793 202.355240,257.100616 
	C202.945358,255.939011 202.582138,254.293076 202.784393,252.542175 
	C209.141464,244.764175 215.376602,237.316483 222.001801,229.898865 
	C223.579529,229.462601 224.980530,229.258347 225.923309,228.491089 
	C243.756287,213.978012 264.632477,207.418076 287.128937,207.169342 
	C335.875000,206.630356 384.631104,207.002716 433.383118,207.002487 
	C448.358124,207.002426 463.333862,207.067474 478.307068,206.903046 
	C479.814026,206.886490 481.305756,205.482040 482.821289,204.778763 
	C482.838043,204.835846 482.723663,204.803085 483.140381,204.788239 
	C484.038849,202.838394 484.937469,200.904190 484.941162,198.968277 
	C485.021606,156.841873 485.026093,114.715271 484.988251,72.588753 
	C484.976715,59.731533 481.597839,47.664902 475.471069,36.448875 
	C474.268402,34.247231 471.493713,32.904293 469.184753,30.982487 
	C457.900299,16.264093 443.617493,6.809472 425.700043,2.939824 
	C424.706726,2.725293 423.895813,1.666064 423.000000,1.000003 
	C542.257202,1.000000 661.514404,1.000000 781.000000,1.000000 
	C781.000000,108.355240 781.000000,215.710632 780.638184,323.801605 
	C778.413147,318.043579 777.103699,311.325653 774.581726,305.098877 
	C767.321228,287.173126 754.166260,274.682098 736.975342,265.836761 
	C735.959229,265.330170 734.981628,265.159424 733.725769,265.012817 
	C733.294373,264.931244 733.141113,264.825592 732.921509,264.375366 
	C730.136230,262.817657 727.482178,260.771759 724.685669,260.553802 
	C717.479431,259.992096 710.210083,260.239166 702.516724,260.300110 
	C694.389404,260.342865 686.711304,260.248688 678.777344,259.838867 
	C675.670776,259.733398 672.820068,259.943573 669.519592,260.289490 
	C658.058960,260.341278 647.048157,260.257355 635.789490,259.857880 
	C633.016724,259.749237 630.491821,259.956116 627.654175,260.298462 
	C626.905884,260.343903 626.470276,260.253845 625.766724,259.839233 
	C621.320923,259.731354 617.143127,259.947998 612.611938,260.302795 
	C611.517273,260.350037 610.776062,260.259094 609.856567,259.889282 
	C608.773682,259.799866 607.869141,259.989288 606.527405,260.319000 
	C602.738953,260.363007 599.387634,260.266693 595.796143,259.859192 
	C593.358582,259.757477 591.161194,259.967010 588.569641,260.317200 
	C586.796753,260.365875 585.418152,260.273956 583.770020,259.851929 
	C576.988831,259.737366 570.477234,259.952881 563.650879,260.303864 
	C562.898682,260.346527 562.461243,260.253662 561.929138,259.978760 
	C561.549072,259.916443 561.263550,260.036255 560.539062,260.292358 
	C556.745667,260.342163 553.391174,260.255676 549.796753,259.858215 
	C547.359802,259.752411 545.162842,259.957642 542.570435,260.300629 
	C540.795105,260.347961 539.415222,260.257538 537.765015,259.839905 
	C532.305481,259.769745 527.116455,260.026733 521.856689,260.515198 
	C521.547241,261.162659 521.308533,261.578674 520.669067,262.081238 
	C519.847229,266.991150 519.161072,271.808990 519.061279,276.638947 
	C518.867981,285.993439 519.004883,285.996338 509.892883,285.996338 
	C444.429108,285.996368 378.965302,285.981232 313.501678,286.074280 
	C311.670013,286.076904 309.840027,287.236359 307.691650,287.999054 
	C305.817169,288.514435 304.260284,288.887115 302.286804,289.193237 
	C295.445404,290.152405 290.626495,294.397339 290.071228,299.756897 
	C283.436096,309.673157 282.863586,319.629608 287.898590,330.123688 
	C290.215240,338.256073 296.643829,342.377838 303.802032,344.781891 
	C310.477936,347.023987 317.650665,347.844971 324.642181,349.078979 
	C353.125275,354.106232 381.740021,358.471344 410.081451,364.193787 
	C437.444824,369.718811 465.492340,371.948273 492.139343,380.987091 
	C505.043701,385.364319 517.550415,390.498810 528.916016,398.197113 
	C531.814209,400.160126 535.265320,401.306671 538.763123,402.938782 
	C541.140747,404.994171 543.217651,406.939117 545.019775,409.069519 
	C545.586914,409.800140 546.428894,410.345306 547.566772,411.018555 
	C549.498718,413.120361 551.134888,415.094147 552.557190,417.306152 
	C552.971497,418.303802 553.599609,419.063202 554.152100,419.878479 
	C554.076538,419.934326 554.187927,419.782898 554.143066,420.167786 
	C555.133484,421.649811 556.168823,422.746948 557.140259,423.883606 
	C557.076416,423.923157 557.158386,423.797302 557.122070,424.180176 
	C557.460571,425.624512 557.757446,426.721619 558.223328,427.741547 
	C560.771057,433.319702 564.044189,438.670685 565.813171,444.481750 
	C572.415466,466.171204 573.818909,488.423981 570.917297,510.835632 
	C569.034546,525.377563 564.792053,539.300232 557.058838,551.973755 
	C554.615479,555.978088 552.400452,560.121765 550.033203,564.423218 
	C549.837158,564.951599 549.592529,565.104065 548.875000,565.109680 
	C547.362671,566.916321 546.227173,568.715454 544.967590,570.793945 
	C542.358643,573.091919 539.873840,575.110596 536.992432,577.100464 
	C535.055725,577.596069 533.311157,577.815613 532.006470,578.690796 
	C514.167847,590.656433 494.283752,596.699768 473.066528,596.848999 
	C413.510925,597.268005 353.950409,596.983215 294.391907,597.052307 
	C292.595062,597.054382 290.799194,597.902405 288.742310,598.515625 
	C288.304901,598.776367 288.128113,598.877563 287.575745,599.092407 
	C286.857117,600.424194 286.215729,601.641907 286.214233,602.860474 
	C286.162323,645.524414 286.154388,688.188477 286.242859,730.852295 
	C286.245758,732.243591 287.318665,733.632629 287.973633,735.384766 
	C288.082489,736.486206 288.110504,737.225708 287.907776,738.188843 
	C288.068634,739.623352 288.460205,740.834106 288.951263,742.357300 
	C289.067169,743.104797 289.083588,743.539978 288.871552,744.216248 
	C289.102600,745.636414 289.562103,746.815552 290.142365,748.212891 
	C290.263092,748.431213 290.272980,748.930054 290.011169,749.134949 
	C290.484985,750.896606 291.220642,752.453430 292.142365,754.316406 
	C301.588318,777.362610 317.935089,792.007812 341.839905,798.089294 
	C342.668335,798.300049 343.284760,799.344238 344.000000,800.000000 
z"/>
<path fill="#FFFFFF" opacity="1.000000" stroke="none" 
	d="
M521.069824,261.994690 
	C521.308533,261.578674 521.547241,261.162659 522.326782,260.566071 
	C527.923584,260.312683 532.979492,260.239899 538.035400,260.167084 
	C539.415222,260.257538 540.795105,260.347961 542.999878,260.421631 
	C545.895447,260.326294 547.966125,260.247742 550.036743,260.169189 
	C553.391174,260.255676 556.745667,260.342163 560.799988,260.397583 
	C561.674561,260.297943 561.849182,260.229370 562.023743,260.160828 
	C562.461243,260.253662 562.898682,260.346527 564.107666,260.427429 
	C571.265869,260.337677 577.652710,260.259827 584.039490,260.182007 
	C585.418152,260.273956 586.796753,260.365875 588.998657,260.440552 
	C591.893372,260.338959 593.964844,260.254669 596.036316,260.170380 
	C599.387634,260.266693 602.738953,260.363007 606.901611,260.441620 
	C608.486938,260.338654 609.260864,260.253387 610.034790,260.168121 
	C610.776062,260.259094 611.517273,260.350037 613.063965,260.425781 
	C617.924500,260.328339 621.979553,260.246063 626.034607,260.163788 
	C626.470276,260.253845 626.905884,260.343903 628.089355,260.420135 
	C631.237183,260.328674 633.637207,260.251038 636.037292,260.173401 
	C647.048157,260.257355 658.058960,260.341278 669.959717,260.410187 
	C673.577454,260.314941 676.305298,260.234711 679.033142,260.154480 
	C686.711304,260.248688 694.389404,260.342865 702.955383,260.421967 
	C713.558044,261.844543 723.272949,263.282227 732.987793,264.719910 
	C733.141113,264.825592 733.294373,264.931244 733.977905,265.227997 
	C735.343445,265.670227 736.178589,265.921417 737.013794,266.172577 
	C754.166260,274.682098 767.321228,287.173126 774.581726,305.098877 
	C777.103699,311.325653 778.413147,318.043579 780.638184,324.268585 
	C781.000000,461.687561 781.000000,599.375122 780.637451,737.289734 
	C779.943787,738.253235 779.447632,738.959229 779.305603,739.730469 
	C773.578247,770.826355 755.648987,790.522766 724.814270,798.251709 
	C724.107849,798.428833 723.600281,799.399475 723.000000,800.000000 
	C596.979126,800.000000 470.958221,800.000000 344.468658,800.000000 
	C343.284760,799.344238 342.668335,798.300049 341.839905,798.089294 
	C317.935089,792.007812 301.588318,777.362610 292.156677,753.971252 
	C291.414246,751.856628 290.843597,750.393311 290.272980,748.930054 
	C290.272980,748.930054 290.263092,748.431213 290.178711,747.862183 
	C289.762909,746.187134 289.431488,745.081177 289.100037,743.975159 
	C289.083588,743.539978 289.067169,743.104797 289.011200,742.008301 
	C288.693939,740.219727 288.416199,739.092468 288.138489,737.965149 
	C288.110504,737.225708 288.082489,736.486206 288.051147,734.920288 
	C288.015656,689.055420 287.983490,644.017029 287.951355,598.978699 
	C288.128113,598.877563 288.304901,598.776367 289.188232,598.668579 
	C351.849518,598.662109 413.806274,598.943604 475.758118,598.514954 
	C498.440796,598.358093 519.194458,591.029236 537.389038,577.129211 
	C539.873840,575.110596 542.358643,573.091919 545.273987,570.625000 
	C546.886963,568.485229 548.069336,566.793762 549.251770,565.102234 
	C549.592529,565.104065 549.837158,564.951599 550.359375,564.314758 
	C555.261902,556.708862 560.707947,549.840820 564.155029,542.084351 
	C576.836609,513.549316 576.751160,483.852783 570.296082,453.908813 
	C567.959045,443.067566 564.904907,432.361938 557.158386,423.797302 
	C557.158386,423.797302 557.076416,423.923157 557.057190,423.560547 
	C556.087952,422.059601 555.137939,420.921234 554.187927,419.782898 
	C554.187927,419.782898 554.076538,419.934326 554.077026,419.564392 
	C553.642029,418.485626 553.206543,417.776764 552.770996,417.067932 
	C551.134888,415.094147 549.498718,413.120361 547.467957,410.742065 
	C546.480408,409.853058 545.887451,409.368561 545.294556,408.884094 
	C543.217651,406.939117 541.140747,404.994171 538.586182,402.640839 
	C518.119690,386.987183 495.282684,377.808685 470.916321,373.223450 
	C419.792633,363.603088 368.510315,354.809448 317.225616,346.072998 
	C305.378113,344.054749 295.157623,340.180511 288.159363,329.942657 
	C282.863586,319.629608 283.436096,309.673157 290.369080,299.579102 
	C294.743896,295.805939 298.723633,292.532867 302.703400,289.259827 
	C304.260284,288.887115 305.817169,288.514435 308.157379,288.048767 
	C332.225861,287.934998 355.510986,287.911102 378.796112,287.894135 
	C425.862946,287.859863 472.929810,287.829315 520.291199,287.867920 
	C520.743469,287.626648 520.901123,287.314636 521.187622,286.549255 
	C521.234253,278.062164 521.152039,270.028412 521.069824,261.994690 
z"/>
<path fill="#FFFFFF" opacity="1.000000" stroke="none" 
	d="
M289.841888,430.446381 
	C290.372681,430.625549 290.903503,430.804688 292.085022,431.083435 
	C300.821960,432.532166 308.908203,433.881378 316.994415,435.230560 
	C317.696198,435.444702 318.397949,435.658844 319.821136,435.960266 
	C327.694611,437.075104 334.846649,438.102600 341.998718,439.130096 
	C342.391113,439.305878 342.783508,439.481659 343.844940,439.776367 
	C358.498352,442.262299 372.486450,444.607269 386.466187,447.001312 
	C407.798615,450.654541 429.169373,454.106812 450.437714,458.102661 
	C463.194122,460.499329 473.060669,471.006012 474.122192,482.098541 
	C475.497040,496.465332 469.455383,507.894836 456.785065,512.545715 
	C451.327942,514.548828 445.072754,515.059265 439.176483,515.077515 
	C388.183563,515.235413 337.189819,515.125000 286.196320,515.098145 
	C272.912384,515.091187 259.628479,515.097107 245.943314,515.097107 
	C245.943314,524.965027 245.943314,533.415833 245.943314,541.866577 
	C245.779449,541.930603 245.615570,541.994568 244.765762,542.110596 
	C207.611069,542.143616 171.142181,542.179810 134.673615,542.086182 
	C110.374199,542.023804 86.075264,541.776489 61.525311,541.415894 
	C60.856907,541.212646 60.439301,541.205444 59.647617,541.075073 
	C58.237446,540.809753 57.201351,540.667480 56.165260,540.525208 
	C49.265690,537.603271 42.366119,534.681396 34.955036,531.431763 
	C33.699562,530.707153 32.955601,530.310364 32.211639,529.913574 
	C31.478317,529.275757 30.744999,528.637878 29.550056,527.622437 
	C15.091996,516.208862 6.091562,502.102509 2.696464,484.504852 
	C2.520871,483.594666 1.582982,482.831573 1.000000,482.000000 
	C1.000000,343.645782 1.000000,205.291550 1.296632,66.386330 
	C1.395510,65.556892 1.197755,65.278450 1.000000,65.000000 
	C1.000000,64.250000 1.000000,63.500000 1.357158,62.604755 
	C2.075898,61.552208 2.559824,60.673729 2.781340,59.733429 
	C10.180674,28.324526 29.783884,9.449598 61.235622,2.669140 
	C62.549305,2.385933 63.747826,1.568534 65.000000,1.000001 
	C184.020889,1.000000 303.041779,1.000000 422.531342,1.000003 
	C423.895813,1.666064 424.706726,2.725293 425.700043,2.939824 
	C443.617493,6.809472 457.900299,16.264093 469.321075,31.317917 
	C479.118073,44.481106 483.081421,58.803062 482.933807,74.422050 
	C482.863007,81.915062 482.937195,89.409348 482.924103,96.903015 
	C482.861328,132.869705 482.791199,168.836395 482.723663,204.803085 
	C482.723663,204.803085 482.838043,204.835846 482.368286,204.830139 
	C419.162231,204.810059 356.425903,204.759811 293.689728,204.835388 
	C287.219940,204.843185 280.681885,205.139969 274.294647,206.097412 
	C254.547928,209.057480 236.407593,215.821243 221.611740,229.868790 
	C215.376602,237.316483 209.141464,244.764175 202.502075,252.728394 
	C200.993454,255.436157 199.816696,257.594238 198.795761,259.823669 
	C186.775848,286.072144 184.718552,313.610046 188.086365,341.886108 
	C191.175705,367.824219 202.463150,389.020752 223.814438,404.507904 
	C230.951736,408.701080 238.089020,412.894257 245.828430,417.372955 
	C249.951431,418.848145 253.472305,420.037842 256.993195,421.227509 
	C258.435547,421.815338 259.877930,422.403137 261.862366,423.132080 
	C262.573364,423.259033 262.742310,423.244873 262.911224,423.230713 
	C265.691864,424.154755 268.472473,425.078796 271.939087,426.173523 
	C274.041931,426.672760 275.458832,427.001312 276.875732,427.329895 
	C277.392609,427.546936 277.909485,427.764008 279.004456,428.092926 
	C280.013245,428.247620 280.444000,428.290466 280.874756,428.333313 
	C281.392548,428.539276 281.910309,428.745270 283.009521,429.060364 
	C284.027069,429.200958 284.463226,429.232422 284.899353,429.263885 
	C285.409821,429.479675 285.920258,429.695465 287.048340,430.028839 
	C288.391235,430.246399 289.116577,430.346375 289.841888,430.446381 
z"/>
<path fill="#0B1218" opacity="1.000000" stroke="none" 
	d="
M64.531342,1.000001 
	C63.747826,1.568534 62.549305,2.385933 61.235622,2.669140 
	C29.783884,9.449598 10.180674,28.324526 2.781340,59.733429 
	C2.559824,60.673729 2.075898,61.552208 1.357158,62.229755 
	C1.000000,41.738091 1.000000,21.476177 1.000000,1.000000 
	C22.020409,1.000000 43.041546,1.000000 64.531342,1.000001 
z"/>
<path fill="#0B1218" opacity="1.000000" stroke="none" 
	d="
M723.468628,800.000000 
	C723.600281,799.399475 724.107849,798.428833 724.814270,798.251709 
	C755.648987,790.522766 773.578247,770.826355 779.305603,739.730469 
	C779.447632,738.959229 779.943787,738.253235 780.637451,737.758423 
	C781.000000,758.591064 781.000000,779.182068 781.000000,800.000000 
	C761.979736,800.000000 742.958496,800.000000 723.468628,800.000000 
z"/>
<path fill="#15181C" opacity="1.000000" stroke="none" 
	d="
M1.000000,482.437500 
	C1.582982,482.831573 2.520871,483.594666 2.696464,484.504852 
	C6.091562,502.102509 15.091996,516.208862 29.266533,527.538147 
	C27.583851,527.001099 25.376268,526.563904 23.917542,525.277527 
	C12.922319,515.581299 5.616770,503.515472 1.275424,489.229370 
	C1.000000,486.958344 1.000000,484.916656 1.000000,482.437500 
z"/>
<path fill="#0B1218" opacity="1.000000" stroke="none" 
	d="
M1.000000,65.250000 
	C1.197755,65.278450 1.395510,65.556892 1.296632,65.917671 
	C1.000000,66.000000 1.000000,65.500000 1.000000,65.250000 
z"/>
<path fill="#0F1115" opacity="1.000000" stroke="none" 
	d="
M246.177399,542.126587 
	C245.943314,533.415833 245.943314,524.965027 245.943314,515.097107 
	C259.628479,515.097107 272.912384,515.091187 286.196320,515.098145 
	C337.189819,515.125000 388.183563,515.235413 439.176483,515.077515 
	C445.072754,515.059265 451.327942,514.548828 456.785065,512.545715 
	C469.455383,507.894836 475.497040,496.465332 474.122192,482.098541 
	C473.060669,471.006012 463.194122,460.499329 450.437714,458.102661 
	C429.169373,454.106812 407.798615,450.654541 386.466187,447.001312 
	C372.486450,444.607269 358.498352,442.262299 344.169739,439.742371 
	C345.091583,439.179962 346.445190,438.243988 347.610992,438.437775 
	C380.527283,443.909149 413.439423,449.409546 446.315399,455.117279 
	C455.254822,456.669220 463.395721,459.814575 469.651703,467.194733 
	C480.295868,479.751770 478.602448,502.866455 462.257599,511.662384 
	C457.187469,514.390930 451.132019,516.735840 445.511871,516.771545 
	C387.573059,517.139587 329.630920,516.964417 271.689850,517.041931 
	C264.904999,517.051025 258.123688,517.780762 251.335114,517.951172 
	C248.624557,518.019287 247.936890,519.217529 247.973877,521.639038 
	C248.060349,527.298645 248.093491,532.963257 247.925995,538.619263 
	C247.888397,539.888855 246.940369,541.131531 246.177399,542.126587 
z"/>
<path fill="#14171B" opacity="1.000000" stroke="none" 
	d="
M287.898590,330.123688 
	C295.157623,340.180511 305.378113,344.054749 317.225616,346.072998 
	C368.510315,354.809448 419.792633,363.603088 470.916321,373.223450 
	C495.282684,377.808685 518.119690,386.987183 538.285522,402.530426 
	C535.265320,401.306671 531.814209,400.160126 528.916016,398.197113 
	C517.550415,390.498810 505.043701,385.364319 492.139343,380.987091 
	C465.492340,371.948273 437.444824,369.718811 410.081451,364.193787 
	C381.740021,358.471344 353.125275,354.106232 324.642181,349.078979 
	C317.650665,347.844971 310.477936,347.023987 303.802032,344.781891 
	C296.643829,342.377838 290.215240,338.256073 287.898590,330.123688 
z"/>
<path fill="#060A0F" opacity="1.000000" stroke="none" 
	d="
M222.001801,229.898865 
	C236.407593,215.821243 254.547928,209.057480 274.294647,206.097412 
	C280.681885,205.139969 287.219940,204.843185 293.689728,204.835388 
	C356.425903,204.759811 419.162231,204.810059 482.351501,204.773041 
	C481.305756,205.482040 479.814026,206.886490 478.307068,206.903046 
	C463.333862,207.067474 448.358124,207.002426 433.383118,207.002487 
	C384.631104,207.002716 335.875000,206.630356 287.128937,207.169342 
	C264.632477,207.418076 243.756287,213.978012 225.923309,228.491089 
	C224.980530,229.258347 223.579529,229.462601 222.001801,229.898865 
z"/>
<path fill="#060A0F" opacity="1.000000" stroke="none" 
	d="
M536.992432,577.100464 
	C519.194458,591.029236 498.440796,598.358093 475.758118,598.514954 
	C413.806274,598.943604 351.849518,598.662109 289.448792,598.509033 
	C290.799194,597.902405 292.595062,597.054382 294.391907,597.052307 
	C353.950409,596.983215 413.510925,597.268005 473.066528,596.848999 
	C494.283752,596.699768 514.167847,590.656433 532.006470,578.690796 
	C533.311157,577.815613 535.055725,577.596069 536.992432,577.100464 
z"/>
<path fill="#030407" opacity="1.000000" stroke="none" 
	d="
M520.669067,262.081238 
	C521.152039,270.028412 521.234253,278.062164 520.966064,286.613983 
	C520.331360,287.281219 520.125000,287.502930 519.996643,287.797241 
	C472.929810,287.829315 425.862946,287.859863 378.796112,287.894135 
	C355.510986,287.911102 332.225861,287.934998 308.475006,287.906067 
	C309.840027,287.236359 311.670013,286.076904 313.501678,286.074280 
	C378.965302,285.981232 444.429108,285.996368 509.892883,285.996338 
	C519.004883,285.996338 518.867981,285.993439 519.061279,276.638947 
	C519.161072,271.808990 519.847229,266.991150 520.669067,262.081238 
z"/>
<path fill="#0F1115" opacity="1.000000" stroke="none" 
	d="
M56.172478,540.937317 
	C57.201351,540.667480 58.237446,540.809753 59.895706,541.278809 
	C60.937283,541.607727 61.356693,541.609863 61.776108,541.611938 
	C86.075264,541.776489 110.374199,542.023804 134.673615,542.086182 
	C171.142181,542.179810 207.611069,542.143616 244.541412,542.249573 
	C243.284164,542.890198 241.566574,543.922485 239.846298,543.927002 
	C204.065643,544.020508 168.284393,543.913513 132.503967,544.043274 
	C120.035210,544.088501 107.563271,545.047974 95.102104,544.883667 
	C83.004730,544.724060 70.917282,543.690552 58.832710,542.926453 
	C57.918789,542.868713 57.062675,541.896545 56.172478,540.937317 
z"/>
<path fill="#121419" opacity="1.000000" stroke="none" 
	d="
M223.841064,404.131104 
	C202.463150,389.020752 191.175705,367.824219 188.086365,341.886108 
	C184.718552,313.610046 186.775848,286.072144 198.795761,259.823669 
	C199.816696,257.594238 200.993454,255.436157 202.380157,253.058701 
	C202.582138,254.293076 202.945358,255.939011 202.355240,257.100616 
	C192.852127,275.806793 189.034531,295.700226 188.904892,316.579376 
	C188.801300,333.266998 190.176514,349.664154 195.736221,365.476227 
	C200.599319,379.307159 209.654205,390.214172 220.516449,399.781342 
	C221.802353,400.913971 222.758621,402.420898 223.841064,404.131104 
z"/>
<path fill="#060A0F" opacity="1.000000" stroke="none" 
	d="
M483.140381,204.788239 
	C482.791199,168.836395 482.861328,132.869705 482.924103,96.903015 
	C482.937195,89.409348 482.863007,81.915062 482.933807,74.422050 
	C483.081421,58.803062 479.118073,44.481106 469.580353,31.500740 
	C471.493713,32.904293 474.268402,34.247231 475.471069,36.448875 
	C481.597839,47.664902 484.976715,59.731533 484.988251,72.588753 
	C485.026093,114.715271 485.021606,156.841873 484.941162,198.968277 
	C484.937469,200.904190 484.038849,202.838394 483.140381,204.788239 
z"/>
<path fill="#121419" opacity="1.000000" stroke="none" 
	d="
M557.122070,424.180176 
	C564.904907,432.361938 567.959045,443.067566 570.296082,453.908813 
	C576.751160,483.852783 576.836609,513.549316 564.155029,542.084351 
	C560.707947,549.840820 555.261902,556.708862 550.407043,564.093140 
	C552.400452,560.121765 554.615479,555.978088 557.058838,551.973755 
	C564.792053,539.300232 569.034546,525.377563 570.917297,510.835632 
	C573.818909,488.423981 572.415466,466.171204 565.813171,444.481750 
	C564.044189,438.670685 560.771057,433.319702 558.223328,427.741547 
	C557.757446,426.721619 557.460571,425.624512 557.122070,424.180176 
z"/>
<path fill="#32363A" opacity="1.000000" stroke="none" 
	d="
M287.575745,599.092407 
	C287.983490,644.017029 288.015656,689.055420 287.970276,734.558228 
	C287.318665,733.632629 286.245758,732.243591 286.242859,730.852295 
	C286.154388,688.188477 286.162323,645.524414 286.214233,602.860474 
	C286.215729,601.641907 286.857117,600.424194 287.575745,599.092407 
z"/>
<path fill="#030407" opacity="1.000000" stroke="none" 
	d="
M732.921509,264.375366 
	C723.272949,263.282227 713.558044,261.844543 703.404541,260.284973 
	C710.210083,260.239166 717.479431,259.992096 724.685669,260.553802 
	C727.482178,260.771759 730.136230,262.817657 732.921509,264.375366 
z"/>
<path fill="#0F1115" opacity="1.000000" stroke="none" 
	d="
M316.930237,434.834839 
	C308.908203,433.881378 300.821960,432.532166 292.367676,431.032410 
	C292.512207,430.383087 293.103821,429.391174 293.525726,429.458740 
	C301.023163,430.659485 308.502319,431.975830 315.973755,433.331573 
	C316.326569,433.395630 316.571136,434.056274 316.930237,434.834839 
z"/>
<path fill="#0F1115" opacity="1.000000" stroke="none" 
	d="
M341.926086,438.742310 
	C334.846649,438.102600 327.694611,437.075104 320.191315,435.913757 
	C320.098999,435.367493 320.423767,434.567413 320.607330,434.598602 
	C327.697449,435.803253 334.774597,437.083923 341.926086,438.742310 
z"/>
<path fill="#15181C" opacity="1.000000" stroke="none" 
	d="
M302.286804,289.193237 
	C298.723633,292.532867 294.743896,295.805939 290.466309,299.256836 
	C290.626495,294.397339 295.445404,290.152405 302.286804,289.193237 
z"/>
<path fill="#0F1115" opacity="1.000000" stroke="none" 
	d="
M256.946411,420.857971 
	C253.472305,420.037842 249.951431,418.848145 246.192642,417.395752 
	C250.433334,415.543182 253.566833,418.340912 256.946411,420.857971 
z"/>
<path fill="#030407" opacity="1.000000" stroke="none" 
	d="
M583.770020,259.851929 
	C577.652710,260.259827 571.265869,260.337677 564.422363,260.291931 
	C570.477234,259.952881 576.988831,259.737366 583.770020,259.851929 
z"/>
<path fill="#030407" opacity="1.000000" stroke="none" 
	d="
M537.765015,259.839905 
	C532.979492,260.239899 527.923584,260.312683 522.397522,260.334595 
	C527.116455,260.026733 532.305481,259.769745 537.765015,259.839905 
z"/>
<path fill="#121419" opacity="1.000000" stroke="none" 
	d="
M548.875000,565.109680 
	C548.069336,566.793762 546.886963,568.485229 545.398132,570.345703 
	C546.227173,568.715454 547.362671,566.916321 548.875000,565.109680 
z"/>
<path fill="#030407" opacity="1.000000" stroke="none" 
	d="
M625.766724,259.839233 
	C621.979553,260.246063 617.924500,260.328339 613.417358,260.287628 
	C617.143127,259.947998 621.320923,259.731354 625.766724,259.839233 
z"/>
<path fill="#32363A" opacity="1.000000" stroke="none" 
	d="
M290.011169,749.134949 
	C290.843597,750.393311 291.414246,751.856628 291.970581,753.665039 
	C291.220642,752.453430 290.484985,750.896606 290.011169,749.134949 
z"/>
<path fill="#0F1115" opacity="1.000000" stroke="none" 
	d="
M276.870239,426.971924 
	C275.458832,427.001312 274.041931,426.672760 272.312439,426.152649 
	C274.107483,422.557220 275.431458,424.992950 276.870239,426.971924 
z"/>
<path fill="#32363A" opacity="1.000000" stroke="none" 
	d="
M287.907776,738.188843 
	C288.416199,739.092468 288.693939,740.219727 288.911713,741.695984 
	C288.460205,740.834106 288.068634,739.623352 287.907776,738.188843 
z"/>
<path fill="#030407" opacity="1.000000" stroke="none" 
	d="
M678.777344,259.838867 
	C676.305298,260.234711 673.577454,260.314941 670.409485,260.274445 
	C672.820068,259.943573 675.670776,259.733398 678.777344,259.838867 
z"/>
<path fill="#121419" opacity="1.000000" stroke="none" 
	d="
M554.143066,420.167786 
	C555.137939,420.921234 556.087952,422.059601 557.121033,423.521027 
	C556.168823,422.746948 555.133484,421.649811 554.143066,420.167786 
z"/>
<path fill="#32363A" opacity="1.000000" stroke="none" 
	d="
M288.871552,744.216248 
	C289.431488,745.081177 289.762909,746.187134 290.057983,747.643921 
	C289.562103,746.815552 289.102600,745.636414 288.871552,744.216248 
z"/>
<path fill="#030407" opacity="1.000000" stroke="none" 
	d="
M635.789490,259.857880 
	C633.637207,260.251038 631.237183,260.328674 628.401978,260.284637 
	C630.491821,259.956116 633.016724,259.749237 635.789490,259.857880 
z"/>
<path fill="#030407" opacity="1.000000" stroke="none" 
	d="
M549.796753,259.858215 
	C547.966125,260.247742 545.895447,260.326294 543.395386,260.283844 
	C545.162842,259.957642 547.359802,259.752411 549.796753,259.858215 
z"/>
<path fill="#030407" opacity="1.000000" stroke="none" 
	d="
M595.796143,259.859192 
	C593.964844,260.254669 591.893372,260.338959 589.392883,260.299896 
	C591.161194,259.967010 593.358582,259.757477 595.796143,259.859192 
z"/>
<path fill="#0F1115" opacity="1.000000" stroke="none" 
	d="
M289.854248,430.093201 
	C289.116577,430.346375 288.391235,430.246399 287.332703,429.986206 
	C287.886688,427.515137 288.841553,427.458160 289.854248,430.093201 
z"/>
<path fill="#121419" opacity="1.000000" stroke="none" 
	d="
M552.557190,417.306152 
	C553.206543,417.776764 553.642029,418.485626 554.152649,419.508545 
	C553.599609,419.063202 552.971497,418.303802 552.557190,417.306152 
z"/>
<path fill="#030407" opacity="1.000000" stroke="none" 
	d="
M736.975342,265.836761 
	C736.178589,265.921417 735.343445,265.670227 734.256104,265.203857 
	C734.981628,265.159424 735.959229,265.330170 736.975342,265.836761 
z"/>
<path fill="#121419" opacity="1.000000" stroke="none" 
	d="
M545.019775,409.069519 
	C545.887451,409.368561 546.480408,409.853058 547.172119,410.614014 
	C546.428894,410.345306 545.586914,409.800140 545.019775,409.069519 
z"/>
<path fill="#0F1115" opacity="1.000000" stroke="none" 
	d="
M31.939159,530.138062 
	C32.955601,530.310364 33.699562,530.707153 34.638138,531.360107 
	C33.777393,531.198242 32.722038,530.780396 31.939159,530.138062 
z"/>
<path fill="#0F1115" opacity="1.000000" stroke="none" 
	d="
M284.898499,428.956482 
	C284.463226,429.232422 284.027069,429.200958 283.295532,429.018097 
	C283.290161,428.385895 283.580200,427.905029 283.870209,427.424194 
	C284.212677,427.832489 284.555145,428.240753 284.898499,428.956482 
z"/>
<path fill="#0F1115" opacity="1.000000" stroke="none" 
	d="
M280.881653,428.020599 
	C280.444000,428.290466 280.013245,428.247620 279.291748,428.052185 
	C279.294342,427.411804 279.587708,426.924011 279.881042,426.436188 
	C280.216888,426.860077 280.552734,427.283966 280.881653,428.020599 
z"/>
<path fill="#030407" opacity="1.000000" stroke="none" 
	d="
M609.856567,259.889282 
	C609.260864,260.253387 608.486938,260.338654 607.338745,260.301300 
	C607.869141,259.989288 608.773682,259.799866 609.856567,259.889282 
z"/>
<path fill="#0F1115" opacity="1.000000" stroke="none" 
	d="
M262.922546,422.972046 
	C262.742310,423.244873 262.573364,423.259033 262.202118,423.119141 
	C262.214264,422.573669 262.428741,422.182312 262.643188,421.790924 
	C262.740051,422.098389 262.836945,422.405884 262.922546,422.972046 
z"/>
<path fill="#030407" opacity="1.000000" stroke="none" 
	d="
M561.929138,259.978760 
	C561.849182,260.229370 561.674561,260.297943 561.239014,260.261292 
	C561.263550,260.036255 561.549072,259.916443 561.929138,259.978760 
z"/>
<path fill="#15181C" opacity="1.000000" stroke="none" 
	d="
M520.291199,287.867920 
	C520.125000,287.502930 520.331360,287.281219 520.837280,287.067352 
	C520.901123,287.314636 520.743469,287.626648 520.291199,287.867920 
z"/>
<path fill="#15181C" opacity="1.000000" stroke="none" 
	d="
M61.525311,541.415894 
	C61.356693,541.609863 60.937283,541.607727 60.269783,541.401917 
	C60.439301,541.205444 60.856907,541.212646 61.525311,541.415894 
z"/>
</svg>